# xmcd
#
# Track frame offsets:
#	150
#	17685
#	39048
#	59854
#	75426
#	107666
#	121083
#	147934
#	169391
#	186084
#	203012
#	232286
#	249412
#	267072
#	283535
#
# Disc length: 4044 seconds
#
# Revision: 0
# Processed by: cddbd v1.5.1PL0 Copyright (c) Steve Scherf et al.
# Submitted via: dBpowerAMP V4.0
#
DISCID=cc0fca0f
DTITLE=Famous Down Home Blues Duo (Bernd Simon and Klaus Kilian) - Down Home Percolaters - Nothing But The Blues - Good To The Last Drop
DYEAR=1900
DGENRE=Blues
TTITLE0=Good Evening Everybody
TTITLE1=32-20 Blues
TTITLE2=Mailman Blues
TTITLE3=Don't Start Me Talkin'
TTITLE4=Unseen Eye
TTITLE5=Diddie Wa Diddie
TTITLE6=I'm Gettin' Tired
TTITLE7=Don't Get Around Much Anymore
TTITLE8=Mama Talk To Your Daughter
TTITLE9=Black Rat Swing
TTITLE10=John Henry
TTITLE11=Pony Blues
TTITLE12=Hooray Hooray This Woman Is Killing Me
TTITLE13=Boogie Twist
TTITLE14=Black Angel Blues
EXTD=
EXTT0=
EXTT1=
EXTT2=
EXTT3=
EXTT4=
EXTT5=
EXTT6=
EXTT7=
EXTT8=
EXTT9=
EXTT10=
EXTT11=
EXTT12=
EXTT13=
EXTT14=
PLAYORDER=
